HIERARCHY
ROOT Hips
{
	OFFSET 0.000000 0.000000 0.000000
	CHANNELS 6 Xposition Yposition Zposition Xrotation Yrotation Zrotation
	JOINT Spine
	{
		OFFSET 0.000000 0.044490 0.066735
		CHANNELS 3 Xrotation Yrotation Zrotation
		JOINT Spine1
		{
			OFFSET 0.000000 0.015451 0.087628
			CHANNELS 3 Xrotation Yrotation Zrotation
			JOINT Spine2
			{
				OFFSET 0.000000 0.007755 0.088641
				CHANNELS 3 Xrotation Yrotation Zrotation
				JOINT Spine3
				{
					OFFSET 0.000000 0.000000 0.088980
					CHANNELS 3 Xrotation Yrotation Zrotation
					JOINT Neck
					{
						OFFSET 0.000000 -0.033367 0.233572
						CHANNELS 3 Xrotation Yrotation Zrotation
						JOINT Head
						{
							OFFSET 0.000000 -0.021245 0.120488
							CHANNELS 3 Xrotation Yrotation Zrotation
							End Site
							{
								OFFSET 0.000000 0.000000 0.000000
							}
						}
					}
					JOINT RightShoulder
					{
						OFFSET -0.026917 -0.044862 0.145355
						CHANNELS 3 Xrotation Yrotation Zrotation
						JOINT RightArm
						{
							OFFSET -0.133690 0.000000 0.000000
							CHANNELS 3 Xrotation Yrotation Zrotation
							JOINT RightForeArm
							{
								OFFSET -0.257725 0.000000 0.000000
								CHANNELS 3 Xrotation Yrotation Zrotation
								JOINT RightHand
								{
									OFFSET -0.216749 0.000000 0.000000
									CHANNELS 3 Xrotation Yrotation Zrotation
									JOINT RightHandEnd
									{
										OFFSET -0.062518 0.000000 0.000000
										CHANNELS 3 Xrotation Yrotation Zrotation
										End Site
										{
											OFFSET 0.000000 0.000000 0.000000
										}
									}
									JOINT RightHandThumb1
									{
										OFFSET -0.025007 -0.041679 -0.016672
										CHANNELS 3 Xrotation Yrotation Zrotation
										End Site
										{
											OFFSET 0.000000 0.000000 0.000000
										}
									}
								}
							}
						}
					}
					JOINT LeftShoulder
					{
						OFFSET 0.026917 -0.044862 0.145355
						CHANNELS 3 Xrotation Yrotation Zrotation
						JOINT LeftArm
						{
							OFFSET 0.133690 0.000000 0.000000
							CHANNELS 3 Xrotation Yrotation Zrotation
							JOINT LeftForeArm
							{
								OFFSET 0.257725 0.000000 0.000000
								CHANNELS 3 Xrotation Yrotation Zrotation
								JOINT LeftHand
								{
									OFFSET 0.216749 0.000000 0.000000
									CHANNELS 3 Xrotation Yrotation Zrotation
									JOINT LeftHandEnd
									{
										OFFSET 0.062518 0.000000 0.000000
										CHANNELS 3 Xrotation Yrotation Zrotation
										End Site
										{
											OFFSET 0.000000 0.000000 0.000000
										}
									}
									JOINT LeftHandThumb1
									{
										OFFSET 0.025007 -0.041679 -0.016672
										CHANNELS 3 Xrotation Yrotation Zrotation
										End Site
										{
											OFFSET 0.000000 0.000000 0.000000
										}
									}
								}
							}
						}
					}
				}
			}
		}
	}
	JOINT RightUpLeg
	{
		OFFSET -0.079855 0.000000 -0.023329
		CHANNELS 3 Xrotation Yrotation Zrotation
		JOINT RightLeg
		{
			OFFSET 0.000000 0.000000 -0.366572
			CHANNELS 3 Xrotation Yrotation Zrotation
			JOINT RightFoot
			{
				OFFSET 0.000000 0.000000 -0.363650
				CHANNELS 3 Xrotation Yrotation Zrotation
				JOINT RightToeBase
				{
					OFFSET 0.000000 -0.114715 -0.041753
					CHANNELS 3 Xrotation Yrotation Zrotation
					End Site
					{
						OFFSET 0.000000 0.000000 0.000000
					}
				}
			}
		}
	}
	JOINT LeftUpLeg
	{
		OFFSET 0.079855 0.000000 -0.023329
		CHANNELS 3 Xrotation Yrotation Zrotation
		JOINT LeftLeg
		{
			OFFSET 0.000000 0.000000 -0.366572
			CHANNELS 3 Xrotation Yrotation Zrotation
			JOINT LeftFoot
			{
				OFFSET 0.000000 0.000000 -0.363650
				CHANNELS 3 Xrotation Yrotation Zrotation
				JOINT LeftToeBase
				{
					OFFSET 0.000000 -0.114715 -0.041753
					CHANNELS 3 Xrotation Yrotation Zrotation
					End Site
					{
						OFFSET 0.000000 0.000000 0.000000
					}
				}
			}
		}
	}
}
MOTION
Frames: 12
Frame Time: 0.033333
-0.745292 -0.726267 0.785716 5.168900 2.993200 91.539000 -0.583500 1.397100 -0.241800 -0.715300 -0.013200 -0.170200 1.625900 1.860000 -2.812200 0.767100 0.877700 -1.711800 -4.694800 -4.136800 -0.489100 -7.999600 -0.959000 0.894100 7.576500 -10.048400 11.918100 2.942100 -9.929400 23.612500 0.000000 0.000100 88.109700 55.678700 30.845700 -13.239700 0.000000 0.000000 0.000000 0.000000 0.000000 0.000000 -0.431400 7.300400 -12.323000 39.332500 44.595500 -57.379700 -0.000100 0.000000 -119.505500 29.345300 -10.754400 -1.022800 0.000000 0.000000 0.000000 0.000000 0.000000 0.000000 -7.828500 10.579600 -12.991300 55.687100 0.000000 0.000000 6.013900 -9.531600 -4.526400 -28.803000 0.000000 0.000000 -6.773300 12.288600 18.817000 12.473600 0.000000 0.000000 -12.369100 2.743700 1.906700 -4.973500 0.000000 0.000000 
-0.759742 -0.726938 0.786254 4.733300 3.603300 89.820300 -1.093300 0.748200 -0.024100 -1.152800 -0.341600 -0.087800 1.891100 2.432900 -0.945400 0.907400 0.716600 -1.124400 -4.960200 -3.542700 -0.843700 -7.679700 -1.188700 0.148600 7.389200 -9.998500 12.321800 3.334500 -8.355300 24.087100 0.000000 0.000100 87.801200 56.116300 30.262300 -14.555700 0.000000 0.000000 0.000000 0.000000 0.000000 0.000000 -0.024300 8.493400 -12.101800 39.790400 43.373000 -55.581400 -0.000100 0.000000 -119.721500 29.110700 -10.704900 -1.205900 0.000000 0.000000 0.000000 0.000000 0.000000 0.000000 -2.956600 9.437800 -14.616800 48.529500 0.000000 0.000000 9.573200 -12.802900 -4.144500 -37.277400 0.000000 0.000000 -9.143500 11.711000 18.526500 13.175700 0.000000 0.000000 -11.920100 2.012000 3.936400 -3.819000 0.000000 0.000000 
-0.774553 -0.729889 0.787070 3.762300 4.022200 88.279400 -1.278800 -0.111900 0.161600 -1.299400 -0.768900 -0.012400 2.078400 2.821900 0.823000 1.007700 0.552600 -0.533200 -5.550500 -2.933900 -1.251900 -7.457200 -1.430200 -0.631500 6.998600 -10.105400 13.139300 3.590900 -8.074200 25.670100 0.000000 0.000100 86.942600 56.481900 29.310300 -16.607200 0.000000 0.000000 0.000000 0.000000 0.000000 0.000000 0.433600 9.555800 -12.073000 40.265300 43.174100 -52.380000 -0.000100 0.000000 -119.893100 29.103600 -10.662700 -1.035900 0.000000 0.000000 0.000000 0.000000 0.000000 0.000000 1.131200 7.396000 -16.109800 41.272100 0.000000 0.000000 8.575200 -13.573800 -3.160500 -44.012800 0.000000 0.000000 -11.483600 10.274600 18.188300 14.332700 0.000000 0.000000 -11.253000 0.733700 5.514000 -3.113000 0.000000 0.000000 
-0.789689 -0.734510 0.788347 2.129900 4.360600 86.923500 -1.213400 -1.170000 0.323900 -1.195900 -1.306500 0.031200 2.182400 2.783100 2.243600 1.083200 0.371000 0.011400 -6.330500 -2.075300 -1.351900 -7.344600 -1.854500 -1.473600 6.482600 -10.304300 14.882300 3.566400 -8.780100 27.559200 0.000000 0.000100 85.661900 55.845200 28.426600 -18.574900 0.000000 0.000000 0.000000 0.000000 0.000000 0.000000 0.969300 10.532000 -12.074200 40.534400 44.015600 -47.901100 -0.000100 0.000000 -119.906400 28.863500 -11.052200 -0.879600 0.000000 0.000000 0.000000 0.000000 0.000000 0.000000 3.735400 4.507500 -17.213300 35.238500 0.000000 0.000000 4.295600 -12.370700 -3.108200 -40.927000 0.000000 0.000000 -13.636600 7.937100 18.031100 15.596200 0.000000 0.000000 -10.409400 -0.890900 6.004300 -2.322200 0.000000 0.000000 
-0.804103 -0.739145 0.790405 0.429900 4.626400 85.665600 -0.999500 -2.124300 0.488000 -0.970500 -1.772100 0.059800 2.331800 2.423400 3.408000 1.158400 0.187100 0.499700 -7.310900 -1.086200 -1.145200 -7.068500 -2.355500 -2.357000 6.186900 -10.586900 17.292400 3.111400 -9.887100 29.358900 0.000000 0.000100 83.965300 55.110700 28.201400 -20.365800 0.000000 0.000000 0.000000 0.000000 0.000000 0.000000 1.676700 11.203900 -11.887000 40.556100 45.578700 -42.887900 -0.000100 0.000000 -119.672800 28.254300 -11.701900 -0.796300 0.000000 0.000000 0.000000 0.000000 0.000000 0.000000 5.001200 1.459500 -17.192600 30.789000 0.000000 0.000000 0.697100 -10.204100 -4.464300 -33.899800 0.000000 0.000000 -15.548900 5.348000 17.942100 17.085400 0.000000 0.000000 -9.604500 -1.686400 5.442800 -2.524400 0.000000 0.000000 
-0.816516 -0.742241 0.792792 -0.396000 4.779900 84.660800 -0.725700 -2.509500 0.641400 -0.728500 -1.984500 0.101800 2.537800 2.226400 4.418600 1.202300 0.070400 0.897300 -8.398800 -0.328300 -1.006800 -6.612400 -2.690200 -3.251000 6.107500 -11.003400 19.512900 2.313100 -11.165900 31.263700 0.000000 0.000100 81.992800 55.276700 27.999300 -21.976100 0.000000 0.000000 0.000000 0.000000 0.000000 0.000000 2.390600 11.246800 -11.429700 40.504900 47.438900 -37.926600 -0.000100 0.000000 -119.420700 27.838800 -11.937900 -0.790300 0.000000 0.000000 0.000000 0.000000 0.000000 0.000000 5.624000 -0.567800 -16.283000 27.624100 0.000000 0.000000 -0.835900 -8.121900 -6.346700 -30.454900 0.000000 0.000000 -17.461000 3.422300 17.111400 19.501800 0.000000 0.000000 -8.880900 0.073300 3.580200 -6.658500 0.000000 0.000000 
-0.826056 -0.743694 0.794542 -0.279200 4.833000 84.485600 -0.454600 -2.420100 0.729600 -0.536000 -1.946000 0.157000 2.688000 2.448700 5.131300 1.188000 0.096300 1.092000 -9.395900 0.141200 -1.262500 -6.246200 -2.836500 -4.229500 5.942300 -11.563800 21.013700 1.399500 -12.708000 33.196600 0.000000 0.000100 80.163300 56.316100 27.068300 -23.025200 0.000000 0.000000 0.000000 0.000000 0.000000 0.000000 3.000500 10.758200 -10.813700 40.169900 48.892800 -32.896400 -0.000100 0.000000 -119.474600 27.744600 -11.805000 -0.873100 0.000000 0.000000 0.000000 0.000000 0.000000 0.000000 6.121200 -1.260400 -15.997400 25.338200 0.000000 0.000000 -1.494100 -6.851100 -7.351900 -30.084700 0.000000 0.000000 -19.639000 2.445000 14.397400 23.084100 0.000000 0.000000 -7.794100 4.487700 0.442300 -14.968100 0.000000 0.000000 
-0.831949 -0.744431 0.795269 -0.098100 4.767800 85.586600 -0.212100 -2.462300 0.761700 -0.356300 -1.840000 0.201600 2.717700 2.845200 5.347300 1.138100 0.250400 1.063400 -10.144100 0.603400 -1.931200 -5.999900 -2.981200 -5.362200 5.762400 -12.098200 21.786200 0.272200 -14.387300 34.417500 0.000000 0.000100 79.055500 57.835700 26.008400 -23.415700 0.000000 0.000000 0.000000 0.000000 0.000000 0.000000 3.598000 10.153000 -10.276700 39.315500 49.309700 -27.726400 -0.000100 0.000000 -119.810800 27.164100 -11.912600 -0.891300 0.000000 0.000000 0.000000 0.000000 0.000000 0.000000 6.820800 -1.562200 -17.182300 23.591000 0.000000 0.000000 -2.045600 -6.378100 -7.113100 -29.205700 0.000000 0.000000 -21.773400 2.071100 10.045500 26.861900 0.000000 0.000000 -6.598500 8.417900 -1.994900 -22.495200 0.000000 0.000000 
-0.833359 -0.744756 0.795444 -0.342400 4.418600 87.520800 0.029000 -2.782000 0.798700 -0.183300 -1.826900 0.218600 2.719700 3.030300 5.275800 1.097800 0.418700 0.978800 -10.580000 1.222400 -2.812000 -5.571500 -3.232000 -6.579400 5.944500 -12.342200 21.857300 -1.415500 -15.932800 34.294100 0.000000 0.000100 79.086300 59.008900 25.834900 -23.572900 0.000000 0.000000 0.000000 0.000000 0.000000 0.000000 4.234100 9.666300 -9.890100 38.362100 48.719000 -23.213000 -0.000100 0.000000 -120.100200 25.806800 -12.224800 -0.739200 0.000000 0.000000 0.000000 0.000000 0.000000 0.000000 8.061800 -2.227600 -18.900700 21.983600 0.000000 0.000000 -2.094700 -6.445700 -6.586500 -27.822100 0.000000 0.000000 -23.031600 1.891900 5.860400 29.626100 0.000000 0.000000 -6.925000 8.899300 -0.581100 -25.548600 0.000000 0.000000 
-0.830359 -0.744421 0.795271 -0.735200 3.906400 89.160400 0.124500 -3.027600 0.867000 -0.092800 -1.904900 0.232700 2.735200 2.924800 5.408700 1.070000 0.480300 1.066600 -10.617700 1.830300 -3.714400 -4.857800 -3.542000 -7.689700 6.485400 -12.289800 21.207500 -3.470700 -17.191000 33.124300 0.000000 0.000100 80.116800 58.066200 26.288400 -23.478800 0.000000 0.000000 0.000000 0.000000 0.000000 0.000000 4.734500 9.143300 -9.498300 37.983600 47.852700 -20.248000 -0.000100 0.000000 -120.216200 24.538300 -12.180400 -0.608700 0.000000 0.000000 0.000000 0.000000 0.000000 0.000000 9.592300 -3.095900 -19.543900 20.460200 0.000000 0.000000 -1.462900 -6.680900 -6.811500 -27.975500 0.000000 0.000000 -23.039300 1.390400 3.624300 30.676400 0.000000 0.000000 -8.508600 6.270100 4.106500 -25.217800 0.000000 0.000000 
-0.823501 -0.743275 0.794601 -0.942200 3.469000 89.847200 -0.058100 -3.026800 0.898600 -0.211800 -1.960800 0.270100 2.811900 2.720800 5.924700 1.065300 0.416000 1.354700 -10.237200 2.227100 -4.489300 -4.058400 -3.778400 -8.541800 6.867400 -12.273200 20.113400 -4.890200 -17.914500 31.894000 0.000000 0.000100 81.543800 53.737400 26.261000 -22.320900 0.000000 0.000000 0.000000 0.000000 0.000000 0.000000 4.954100 8.546500 -8.994300 38.138900 47.182300 -18.681600 -0.000100 0.000000 -120.411400 23.657100 -11.768900 -0.589200 0.000000 0.000000 0.000000 0.000000 0.000000 0.000000 10.924500 -3.624000 -18.667900 19.451800 0.000000 0.000000 -0.569600 -6.769200 -7.689500 -29.238500 0.000000 0.000000 -21.811800 0.321900 3.735700 29.878100 0.000000 0.000000 -9.656800 3.761400 7.310500 -24.476200 0.000000 0.000000 
-0.812957 -0.740928 0.793425 -0.860000 3.020300 90.079500 -0.454300 -2.851500 0.780600 -0.533300 -2.034500 0.269100 3.002700 2.675300 6.430600 1.127700 0.322000 1.626600 -9.570000 2.367900 -5.021000 -3.282600 -3.784600 -9.082500 6.813200 -12.608900 19.103800 -4.917900 -17.762700 31.237900 0.000000 0.000100 83.022900 47.395200 25.225600 -20.024200 0.000000 0.000000 0.000000 0.000000 0.000000 0.000000 4.887500 8.249400 -8.590600 38.249100 46.413600 -17.600200 -0.000100 0.000000 -120.948300 22.201000 -11.513400 -0.476600 0.000000 0.000000 0.000000 0.000000 0.000000 0.000000 12.078700 -3.553000 -17.275000 19.300300 0.000000 0.000000 0.107200 -6.876500 -8.463100 -29.720500 0.000000 0.000000 -19.437000 -0.597800 5.102800 27.798800 0.000000 0.000000 -10.254600 3.585900 6.408000 -23.395200 0.000000 0.000000 
